<svg xmlns="http://www.w3.org/2000/svg" xmlns:xlink="http://www.w3.org/1999/xlink" contentStyleType="text/css" data-diagram-type="ACTIVITY" height="1474px" preserveAspectRatio="none" style="width:2296px;height:1474px;background:#FFFFFF;" version="1.1" viewBox="0 0 2296 1474" width="2296px" zoomAndPan="magnify"><title>Signalsboard.Hospital.Simulation &#8212; CSP (Tasks + Channels, Swimlanes)</title><defs/><g><g class="title" data-source-line="1"><text fill="#000000" font-family="sans-serif" font-size="14" font-weight="bold" lengthAdjust="spacing" textLength="494.2961" x="899.708" y="34.9659">Signalsboard.Hospital.Simulation &#8212; CSP (Tasks + Channels, Swimlanes)</text></g><rect fill="none" height="24.5158" style="stroke:none;stroke-width:1;" width="2263.7121" x="15" y="53.8419"/><ellipse cx="185.5971" cy="93.3577" fill="#222222" rx="10" ry="10" style="stroke:#222222;stroke-width:1;"/><rect fill="#F1F1F1" height="36.3441" rx="12.5" ry="12.5" style="stroke:#181818;stroke-width:0.5;" width="185.5532" x="92.8205" y="123.3577"/><text fill="#000000" font-family="sans-serif" font-size="12" lengthAdjust="spacing" textLength="165.5532" x="102.8205" y="146.1858">Load VitalsOptions &amp; services</text><rect fill="#F1F1F1" height="36.3441" rx="12.5" ry="12.5" style="stroke:#181818;stroke-width:0.5;" width="199.9772" x="85.6085" y="179.7018"/><text fill="#000000" font-family="sans-serif" font-size="12" lengthAdjust="spacing" textLength="179.9772" x="95.6085" y="202.5299">Query patientIds (cap MaxBeds)</text><rect fill="#F1F1F1" height="36.3441" rx="12.5" ry="12.5" style="stroke:#181818;stroke-width:0.5;" width="329.1942" x="21" y="236.046"/><text fill="#000000" font-family="sans-serif" font-size="12" lengthAdjust="spacing" textLength="309.1942" x="31" y="258.874">Create per-bed bounded Channel&lt;VitalSample&gt;(cap=1)</text><rect fill="#F1F1F1" height="36.3441" rx="12.5" ry="12.5" style="stroke:#181818;stroke-width:0.5;" width="108.5606" x="131.3168" y="292.3901"/><text fill="#000000" font-family="sans-serif" font-size="12" lengthAdjust="spacing" textLength="88.5606" x="141.3168" y="315.2182">Start BedTask[i]</text><ellipse cx="185.5971" cy="1451.3545" fill="none" rx="11" ry="11" style="stroke:#222222;stroke-width:1;"/><ellipse cx="185.5971" cy="1451.3545" fill="#222222" rx="6" ry="6" style="stroke:#222222;stroke-width:1;"/><line style="stroke:#000000;stroke-width:1.5;" x1="15" x2="15" y1="53.8419" y2="1462.3545"/><rect fill="#F1F1F1" height="36.3441" rx="12.5" ry="12.5" style="stroke:#181818;stroke-width:0.5;" width="244.6896" x="498.9491" y="348.7342"/><text fill="#000000" font-family="sans-serif" font-size="12" lengthAdjust="spacing" textLength="224.6896" x="508.9491" y="371.5623">Warmup -&gt; Write samples to its channel</text><rect fill="#F1F1F1" height="36.3441" rx="12.5" ry="12.5" style="stroke:#181818;stroke-width:0.5;" width="179.0131" x="531.7874" y="405.0783"/><text fill="#000000" font-family="sans-serif" font-size="12" lengthAdjust="spacing" textLength="159.0131" x="541.7874" y="427.9064">Start PeriodicTimer(Interval)</text><rect fill="#F1F1F1" height="36.3441" rx="12.5" ry="12.5" style="stroke:#181818;stroke-width:0.5;" width="216.9694" x="512.8092" y="505.4224"/><text fill="#000000" font-family="sans-serif" font-size="12" lengthAdjust="spacing" textLength="196.9694" x="522.8092" y="528.2505">On tick -&gt; gen.Next(patientId, now)</text><rect fill="#F1F1F1" height="36.3441" rx="12.5" ry="12.5" style="stroke:#181818;stroke-width:0.5;" width="193.6052" x="524.4913" y="561.7665"/><text fill="#000000" font-family="sans-serif" font-size="12" lengthAdjust="spacing" textLength="173.6052" x="534.4913" y="584.5946">WriteAsync(sample) to channel</text><polygon fill="#F1F1F1" points="588.9047,623.7665,653.6832,623.7665,665.6832,635.7665,653.6832,647.7665,588.9047,647.7665,576.9047,635.7665,588.9047,623.7665" style="stroke:#181818;stroke-width:0.5;"/><text fill="#000000" font-family="sans-serif" font-size="11" lengthAdjust="spacing" textLength="64.7785" x="588.9047" y="640.0345">channel full?</text><text fill="#000000" font-family="sans-serif" font-size="11" lengthAdjust="spacing" textLength="217.7105" x="359.1942" y="632.5436">apply policy: block / drop-oldest / coalesce</text><polygon fill="#F1F1F1" points="621.2939,663.7665,633.2939,675.7665,621.2939,687.7665,609.2939,675.7665,621.2939,663.7665" style="stroke:#181818;stroke-width:0.5;"/><polygon fill="#F1F1F1" points="621.2939,461.4224,633.2939,473.4224,621.2939,485.4224,609.2939,473.4224,621.2939,461.4224" style="stroke:#181818;stroke-width:0.5;"/><polygon fill="#F1F1F1" points="589.3447,707.7665,653.2432,707.7665,665.2432,719.7665,653.2432,731.7665,589.3447,731.7665,577.3447,719.7665,589.3447,707.7665" style="stroke:#181818;stroke-width:0.5;"/><text fill="#000000" font-family="sans-serif" font-size="11" lengthAdjust="spacing" textLength="63.8985" x="589.3447" y="724.0345">app running</text><line style="stroke:#000000;stroke-width:1.5;" x1="354.1942" x2="354.1942" y1="53.8419" y2="1462.3545"/><rect fill="#F1F1F1" height="36.3441" rx="12.5" ry="12.5" style="stroke:#181818;stroke-width:0.5;" width="242.5776" x="775.9947" y="751.7665"/><text fill="#000000" font-family="sans-serif" font-size="12" lengthAdjust="spacing" textLength="222.5776" x="785.9947" y="774.5946">Spawn N readers (one per bed channel)</text><rect fill="#F1F1F1" height="36.3441" rx="12.5" ry="12.5" style="stroke:#181818;stroke-width:0.5;" width="261.0097" x="766.7786" y="808.1106"/><text fill="#000000" font-family="sans-serif" font-size="12" lengthAdjust="spacing" textLength="241.0097" x="776.7786" y="830.9387">ReadAllAsync -&gt; write into merged channel</text><line style="stroke:#000000;stroke-width:1.5;" x1="760.7786" x2="760.7786" y1="53.8419" y2="1462.3545"/><rect fill="#F1F1F1" height="36.3441" rx="12.5" ry="12.5" style="stroke:#181818;stroke-width:0.5;" width="122.3127" x="1146.0831" y="864.4548"/><text fill="#000000" font-family="sans-serif" font-size="12" lengthAdjust="spacing" textLength="102.3127" x="1156.0831" y="887.2828">Window = Interval</text><rect fill="#F1F1F1" height="36.3441" rx="12.5" ry="12.5" style="stroke:#181818;stroke-width:0.5;" width="338.9023" x="1037.7883" y="964.7989"/><text fill="#000000" font-family="sans-serif" font-size="12" lengthAdjust="spacing" textLength="318.9023" x="1047.7883" y="987.627">Collect up to patientCount samples or until window ends</text><rect fill="#F1F1F1" height="36.3441" rx="12.5" ry="12.5" style="stroke:#181818;stroke-width:0.5;" width="219.0214" x="1097.7288" y="1070.6339"/><text fill="#000000" font-family="sans-serif" font-size="12" lengthAdjust="spacing" textLength="199.0214" x="1107.7288" y="1093.462">WriteAsync(batch) to batch channel</text><polygon fill="#F1F1F1" points="1175.0702,1021.143,1239.4088,1021.143,1251.4088,1033.143,1239.4088,1045.143,1175.0702,1045.143,1163.0702,1033.143,1175.0702,1021.143" style="stroke:#181818;stroke-width:0.5;"/><text fill="#000000" font-family="sans-serif" font-size="11" lengthAdjust="spacing" textLength="17.0829" x="1211.2395" y="1056.9019">yes</text><text fill="#000000" font-family="sans-serif" font-size="11" lengthAdjust="spacing" textLength="64.3385" x="1175.0702" y="1037.411">collected &gt; 0</text><polygon fill="#F1F1F1" points="1207.2395,1126.978,1219.2395,1138.978,1207.2395,1150.978,1195.2395,1138.978,1207.2395,1126.978" style="stroke:#181818;stroke-width:0.5;"/><polygon fill="#F1F1F1" points="1207.2395,920.7989,1219.2395,932.7989,1207.2395,944.7989,1195.2395,932.7989,1207.2395,920.7989" style="stroke:#181818;stroke-width:0.5;"/><polygon fill="#F1F1F1" points="1175.2902,1170.978,1239.1888,1170.978,1251.1888,1182.978,1239.1888,1194.978,1175.2902,1194.978,1163.2902,1182.978,1175.2902,1170.978" style="stroke:#181818;stroke-width:0.5;"/><text fill="#000000" font-family="sans-serif" font-size="11" lengthAdjust="spacing" textLength="63.8985" x="1175.2902" y="1187.246">app running</text><line style="stroke:#000000;stroke-width:1.5;" x1="1031.7883" x2="1031.7883" y1="53.8419" y2="1462.3545"/><rect fill="#F1F1F1" height="36.3441" rx="12.5" ry="12.5" style="stroke:#181818;stroke-width:0.5;" width="302.53" x="1413.6906" y="1214.978"/><text fill="#000000" font-family="sans-serif" font-size="12" lengthAdjust="spacing" textLength="282.53" x="1423.6906" y="1237.8061">Read batch; IVitalBroadcaster.PublishAsync(batch)</text><line style="stroke:#000000;stroke-width:1.5;" x1="1407.6906" x2="1407.6906" y1="53.8419" y2="1462.3545"/><rect fill="#F1F1F1" height="36.3441" rx="12.5" ry="12.5" style="stroke:#181818;stroke-width:0.5;" width="158.781" x="1777.803" y="1271.3222"/><text fill="#000000" font-family="sans-serif" font-size="12" lengthAdjust="spacing" textLength="138.781" x="1787.803" y="1294.1502">Buffer.Add(each sample)</text><rect fill="#F1F1F1" height="36.3441" rx="12.5" ry="12.5" style="stroke:#181818;stroke-width:0.5;" width="261.9457" x="1726.2206" y="1327.6663"/><text fill="#000000" font-family="sans-serif" font-size="12" lengthAdjust="spacing" textLength="241.9457" x="1736.2206" y="1350.4944">Map to DTO; hub.Clients.All.PushVitals(dto)</text><line style="stroke:#000000;stroke-width:1.5;" x1="1720.2206" x2="1720.2206" y1="53.8419" y2="1462.3545"/><rect fill="#F1F1F1" height="36.3441" rx="12.5" ry="12.5" style="stroke:#181818;stroke-width:0.5;" width="275.2058" x="1998.1663" y="1384.0104"/><text fill="#000000" font-family="sans-serif" font-size="12" lengthAdjust="spacing" textLength="255.2058" x="2008.1663" y="1406.8385">Report: channel depth, drops, last-push &lt; 10s</text><line style="stroke:#000000;stroke-width:1.5;" x1="1992.1663" x2="1992.1663" y1="53.8419" y2="1462.3545"/><line style="stroke:#000000;stroke-width:1.5;" x1="2277.3721" x2="2277.3721" y1="53.8419" y2="1462.3545"/><line style="stroke:#181818;stroke-width:1;" x1="185.5971" x2="185.5971" y1="103.3577" y2="123.3577"/><polygon fill="#181818" points="181.5971,113.3577,185.5971,123.3577,189.5971,113.3577,185.5971,117.3577" style="stroke:#181818;stroke-width:1;"/><line style="stroke:#181818;stroke-width:1;" x1="185.5971" x2="185.5971" y1="159.7018" y2="179.7018"/><polygon fill="#181818" points="181.5971,169.7018,185.5971,179.7018,189.5971,169.7018,185.5971,173.7018" style="stroke:#181818;stroke-width:1;"/><line style="stroke:#181818;stroke-width:1;" x1="185.5971" x2="185.5971" y1="216.046" y2="236.046"/><polygon fill="#181818" points="181.5971,226.046,185.5971,236.046,189.5971,226.046,185.5971,230.046" style="stroke:#181818;stroke-width:1;"/><line style="stroke:#181818;stroke-width:1;" x1="185.5971" x2="185.5971" y1="272.3901" y2="292.3901"/><polygon fill="#181818" points="181.5971,282.3901,185.5971,292.3901,189.5971,282.3901,185.5971,286.3901" style="stroke:#181818;stroke-width:1;"/><line style="stroke:#181818;stroke-width:1;" x1="621.2939" x2="621.2939" y1="385.0783" y2="405.0783"/><polygon fill="#181818" points="617.2939,395.0783,621.2939,405.0783,625.2939,395.0783,621.2939,399.0783" style="stroke:#181818;stroke-width:1;"/><line style="stroke:#181818;stroke-width:1;" x1="621.2939" x2="621.2939" y1="541.7665" y2="561.7665"/><polygon fill="#181818" points="617.2939,551.7665,621.2939,561.7665,625.2939,551.7665,621.2939,555.7665" style="stroke:#181818;stroke-width:1;"/><line style="stroke:#181818;stroke-width:1;" x1="576.9047" x2="566.9047" y1="635.7665" y2="635.7665"/><polygon fill="#181818" points="562.9047,645.7665,566.9047,655.7665,570.9047,645.7665,566.9047,649.7665" style="stroke:#181818;stroke-width:1;"/><line style="stroke:#181818;stroke-width:1;" x1="566.9047" x2="566.9047" y1="635.7665" y2="675.7665"/><line style="stroke:#181818;stroke-width:1;" x1="566.9047" x2="609.2939" y1="675.7665" y2="675.7665"/><polygon fill="#181818" points="599.2939,671.7665,609.2939,675.7665,599.2939,679.7665,603.2939,675.7665" style="stroke:#181818;stroke-width:1;"/><line style="stroke:#181818;stroke-width:1;" x1="665.6832" x2="675.6832" y1="635.7665" y2="635.7665"/><polygon fill="#181818" points="671.6832,645.7665,675.6832,655.7665,679.6832,645.7665,675.6832,649.7665" style="stroke:#181818;stroke-width:1;"/><line style="stroke:#181818;stroke-width:1;" x1="675.6832" x2="675.6832" y1="635.7665" y2="675.7665"/><line style="stroke:#181818;stroke-width:1;" x1="675.6832" x2="633.2939" y1="675.7665" y2="675.7665"/><polygon fill="#181818" points="643.2939,671.7665,633.2939,675.7665,643.2939,679.7665,639.2939,675.7665" style="stroke:#181818;stroke-width:1;"/><line style="stroke:#181818;stroke-width:1;" x1="621.2939" x2="621.2939" y1="598.1106" y2="623.7665"/><polygon fill="#181818" points="617.2939,613.7665,621.2939,623.7665,625.2939,613.7665,621.2939,617.7665" style="stroke:#181818;stroke-width:1;"/><line style="stroke:#181818;stroke-width:1;" x1="621.2939" x2="621.2939" y1="485.4224" y2="505.4224"/><polygon fill="#181818" points="617.2939,495.4224,621.2939,505.4224,625.2939,495.4224,621.2939,499.4224" style="stroke:#181818;stroke-width:1;"/><line style="stroke:#181818;stroke-width:1;" x1="665.2432" x2="741.7786" y1="719.7665" y2="719.7665"/><polygon fill="#181818" points="737.7786,603.7665,741.7786,593.7665,745.7786,603.7665,741.7786,599.7665" style="stroke:#181818;stroke-width:1;"/><line style="stroke:#181818;stroke-width:1;" x1="741.7786" x2="741.7786" y1="473.4224" y2="719.7665"/><line style="stroke:#181818;stroke-width:1;" x1="741.7786" x2="633.2939" y1="473.4224" y2="473.4224"/><polygon fill="#181818" points="643.2939,469.4224,633.2939,473.4224,643.2939,477.4224,639.2939,473.4224" style="stroke:#181818;stroke-width:1;"/><line style="stroke:#181818;stroke-width:1;" x1="621.2939" x2="621.2939" y1="687.7665" y2="707.7665"/><polygon fill="#181818" points="617.2939,697.7665,621.2939,707.7665,625.2939,697.7665,621.2939,701.7665" style="stroke:#181818;stroke-width:1;"/><line style="stroke:#181818;stroke-width:1;" x1="621.2939" x2="621.2939" y1="441.4224" y2="461.4224"/><polygon fill="#181818" points="617.2939,451.4224,621.2939,461.4224,625.2939,451.4224,621.2939,455.4224" style="stroke:#181818;stroke-width:1;"/><line style="stroke:#181818;stroke-width:1;" x1="897.2835" x2="897.2835" y1="788.1106" y2="808.1106"/><polygon fill="#181818" points="893.2835,798.1106,897.2835,808.1106,901.2835,798.1106,897.2835,802.1106" style="stroke:#181818;stroke-width:1;"/><line style="stroke:#181818;stroke-width:1;" x1="1207.2395" x2="1207.2395" y1="1045.143" y2="1070.6339"/><polygon fill="#181818" points="1203.2395,1060.6339,1207.2395,1070.6339,1211.2395,1060.6339,1207.2395,1064.6339" style="stroke:#181818;stroke-width:1;"/><line style="stroke:#181818;stroke-width:1;" x1="1251.4088" x2="1326.7502" y1="1033.143" y2="1033.143"/><polygon fill="#181818" points="1322.7502,1078.806,1326.7502,1088.806,1330.7502,1078.806,1326.7502,1082.806" style="stroke:#181818;stroke-width:1;"/><line style="stroke:#181818;stroke-width:1;" x1="1326.7502" x2="1326.7502" y1="1033.143" y2="1138.978"/><line style="stroke:#181818;stroke-width:1;" x1="1326.7502" x2="1219.2395" y1="1138.978" y2="1138.978"/><polygon fill="#181818" points="1229.2395,1134.978,1219.2395,1138.978,1229.2395,1142.978,1225.2395,1138.978" style="stroke:#181818;stroke-width:1;"/><line style="stroke:#181818;stroke-width:1;" x1="1207.2395" x2="1207.2395" y1="1106.978" y2="1126.978"/><polygon fill="#181818" points="1203.2395,1116.978,1207.2395,1126.978,1211.2395,1116.978,1207.2395,1120.978" style="stroke:#181818;stroke-width:1;"/><line style="stroke:#181818;stroke-width:1;" x1="1207.2395" x2="1207.2395" y1="1001.143" y2="1021.143"/><polygon fill="#181818" points="1203.2395,1011.143,1207.2395,1021.143,1211.2395,1011.143,1207.2395,1015.143" style="stroke:#181818;stroke-width:1;"/><line style="stroke:#181818;stroke-width:1;" x1="1207.2395" x2="1207.2395" y1="944.7989" y2="964.7989"/><polygon fill="#181818" points="1203.2395,954.7989,1207.2395,964.7989,1211.2395,954.7989,1207.2395,958.7989" style="stroke:#181818;stroke-width:1;"/><line style="stroke:#181818;stroke-width:1;" x1="1251.1888" x2="1388.6906" y1="1182.978" y2="1182.978"/><polygon fill="#181818" points="1384.6906,1063.1339,1388.6906,1053.1339,1392.6906,1063.1339,1388.6906,1059.1339" style="stroke:#181818;stroke-width:1;"/><line style="stroke:#181818;stroke-width:1;" x1="1388.6906" x2="1388.6906" y1="932.7989" y2="1182.978"/><line style="stroke:#181818;stroke-width:1;" x1="1388.6906" x2="1219.2395" y1="932.7989" y2="932.7989"/><polygon fill="#181818" points="1229.2395,928.7989,1219.2395,932.7989,1229.2395,936.7989,1225.2395,932.7989" style="stroke:#181818;stroke-width:1;"/><line style="stroke:#181818;stroke-width:1;" x1="1207.2395" x2="1207.2395" y1="1150.978" y2="1170.978"/><polygon fill="#181818" points="1203.2395,1160.978,1207.2395,1170.978,1211.2395,1160.978,1207.2395,1164.978" style="stroke:#181818;stroke-width:1;"/><line style="stroke:#181818;stroke-width:1;" x1="1207.2395" x2="1207.2395" y1="900.7989" y2="920.7989"/><polygon fill="#181818" points="1203.2395,910.7989,1207.2395,920.7989,1211.2395,910.7989,1207.2395,914.7989" style="stroke:#181818;stroke-width:1;"/><line style="stroke:#181818;stroke-width:1;" x1="1857.1935" x2="1857.1935" y1="1307.6663" y2="1327.6663"/><polygon fill="#181818" points="1853.1935,1317.6663,1857.1935,1327.6663,1861.1935,1317.6663,1857.1935,1321.6663" style="stroke:#181818;stroke-width:1;"/><line style="stroke:#181818;stroke-width:1;" x1="185.5971" x2="185.5971" y1="328.7342" y2="333.7342"/><line style="stroke:#181818;stroke-width:1;" x1="185.5971" x2="621.2939" y1="333.7342" y2="333.7342"/><line style="stroke:#181818;stroke-width:1;" x1="621.2939" x2="621.2939" y1="333.7342" y2="348.7342"/><polygon fill="#181818" points="617.2939,338.7342,621.2939,348.7342,625.2939,338.7342,621.2939,342.7342" style="stroke:#181818;stroke-width:1;"/><line style="stroke:#181818;stroke-width:1;" x1="621.2939" x2="621.2939" y1="731.7665" y2="736.7665"/><line style="stroke:#181818;stroke-width:1;" x1="621.2939" x2="897.2835" y1="736.7665" y2="736.7665"/><line style="stroke:#181818;stroke-width:1;" x1="897.2835" x2="897.2835" y1="736.7665" y2="751.7665"/><polygon fill="#181818" points="893.2835,741.7665,897.2835,751.7665,901.2835,741.7665,897.2835,745.7665" style="stroke:#181818;stroke-width:1;"/><line style="stroke:#181818;stroke-width:1;" x1="897.2835" x2="897.2835" y1="844.4548" y2="849.4548"/><line style="stroke:#181818;stroke-width:1;" x1="897.2835" x2="1207.2395" y1="849.4548" y2="849.4548"/><line style="stroke:#181818;stroke-width:1;" x1="1207.2395" x2="1207.2395" y1="849.4548" y2="864.4548"/><polygon fill="#181818" points="1203.2395,854.4548,1207.2395,864.4548,1211.2395,854.4548,1207.2395,858.4548" style="stroke:#181818;stroke-width:1;"/><line style="stroke:#181818;stroke-width:1;" x1="1207.2395" x2="1207.2395" y1="1194.978" y2="1199.978"/><line style="stroke:#181818;stroke-width:1;" x1="1207.2395" x2="1564.9556" y1="1199.978" y2="1199.978"/><line style="stroke:#181818;stroke-width:1;" x1="1564.9556" x2="1564.9556" y1="1199.978" y2="1214.978"/><polygon fill="#181818" points="1560.9556,1204.978,1564.9556,1214.978,1568.9556,1204.978,1564.9556,1208.978" style="stroke:#181818;stroke-width:1;"/><line style="stroke:#181818;stroke-width:1;" x1="1564.9556" x2="1564.9556" y1="1251.3222" y2="1256.3222"/><line style="stroke:#181818;stroke-width:1;" x1="1564.9556" x2="1857.1935" y1="1256.3222" y2="1256.3222"/><line style="stroke:#181818;stroke-width:1;" x1="1857.1935" x2="1857.1935" y1="1256.3222" y2="1271.3222"/><polygon fill="#181818" points="1853.1935,1261.3222,1857.1935,1271.3222,1861.1935,1261.3222,1857.1935,1265.3222" style="stroke:#181818;stroke-width:1;"/><line style="stroke:#181818;stroke-width:1;" x1="1857.1935" x2="1857.1935" y1="1364.0104" y2="1369.0104"/><line style="stroke:#181818;stroke-width:1;" x1="1857.1935" x2="2135.7692" y1="1369.0104" y2="1369.0104"/><line style="stroke:#181818;stroke-width:1;" x1="2135.7692" x2="2135.7692" y1="1369.0104" y2="1384.0104"/><polygon fill="#181818" points="2131.7692,1374.0104,2135.7692,1384.0104,2139.7692,1374.0104,2135.7692,1378.0104" style="stroke:#181818;stroke-width:1;"/><line style="stroke:#181818;stroke-width:1;" x1="2135.7692" x2="2135.7692" y1="1420.3545" y2="1425.3545"/><line style="stroke:#181818;stroke-width:1;" x1="2135.7692" x2="185.5971" y1="1425.3545" y2="1425.3545"/><line style="stroke:#181818;stroke-width:1;" x1="185.5971" x2="185.5971" y1="1425.3545" y2="1440.3545"/><polygon fill="#181818" points="181.5971,1430.3545,185.5971,1440.3545,189.5971,1430.3545,185.5971,1434.3545" style="stroke:#181818;stroke-width:1;"/><text fill="#000000" font-family="sans-serif" font-size="18" lengthAdjust="spacing" textLength="111.0593" x="129.0674" y="73.0838">Host / Wiring</text><text fill="#000000" font-family="sans-serif" font-size="18" lengthAdjust="spacing" textLength="87.7494" x="513.6117" y="73.0838">BedTask[i]</text><text fill="#000000" font-family="sans-serif" font-size="18" lengthAdjust="spacing" textLength="123.3172" x="834.6249" y="73.0838">Fan-in / Merge</text><text fill="#000000" font-family="sans-serif" font-size="18" lengthAdjust="spacing" textLength="65.6456" x="1186.9167" y="73.0838">Batcher</text><text fill="#000000" font-family="sans-serif" font-size="18" lengthAdjust="spacing" textLength="102.6354" x="1512.6379" y="73.0838">Broadcaster</text><text fill="#000000" font-family="sans-serif" font-size="18" lengthAdjust="spacing" textLength="245.5005" x="1733.4432" y="73.0838">SignalR Broadcaster (Service)</text><text fill="#000000" font-family="sans-serif" font-size="18" lengthAdjust="spacing" textLength="111.2573" x="2079.1406" y="73.0838">Observability</text><!--SRC=[ZPFFRXen4CRl-nHpgXOLI7A5X0gegY8r8SsYSgXwyAu7TXHZMxQt6oGEVOW-OP-aOo__3Ztq19Ptllc-ttW21OLGq5OBvKiZd1n-DjvI46fOqAvH8f3HyEVNRvWNpv2lX7_ry1xcjT0QbUz3qT9E2Os-bsK7hWrm0sjofBU7p0VXGZRwOeI4Rr7JBstKy_0EFBgVLA4VPwEl3RezM6w5EYoaXxmI5Xx5smobx_47SuSY85XqWn8bbARHad-F9kwJT25sLk4abZxSnQ8YDWUMY9w_quyn-xkS3jbeBTokiJ2OmDeHo_kau24OeE2XwjJFIi_eo4YgLhH3bozqu012SIU7bkrbewM6GDLh5DoY7ZxXMyZFeVgWJHjjfLvJlzTLtZNinORdPhJXzDq1DerI7_YwHWsvi5On9AEese-WL8OxtO1qnWwCafYuLqPmW0fx6Mf9cwCpQ6lY8KS5S8tMF9eugqz23qXprIEwBJAFmefMmnCmR8cEfs1qOWwH-T5JJF32zrEbKeOOjatqI7ECNPIIbpHCN8IgHXTnavQcXGSueRkGcnkbi0h0qs2H8xCvJpcSXs8Sy94Kj9qC1_H7Mbqnjvt0xOdMFhv7W6lQPNIIOAT_5vF_mMhc-0bNmeUK90BeHCQmI8_lwdxut9IAV7tTD8BeTkm5hZw5lEYMeCUYisQpuUgfb3aAjdTy7CpxKIGi7rVBCTHDEPohYCSFUGRSpDVTPkKocDHeMSRL4YKf2llarXeNHgUy8D66kfzU3g-lOYS3oofm3tUtVlol9JRsBm00]--></g></svg>